<svg xmlns="http://www.w3.org/2000/svg" viewBox="0 0 1200 640" role="img" aria-labelledby="title desc">
  <title id="title">Шаблон co-branding Nostra и Herbarista</title>
  <desc id="desc">Зона официального логотипа Herbarista и сервисная подпись Nostra.</desc>
  <rect width="1200" height="640" fill="#F2EFE8"/>
  <rect x="64" y="64" width="1072" height="512" fill="#FCFBF7"/>
  <g font-family="Geist, Golos Text, sans-serif" fill="#141414">
    <text x="112" y="132" font-size="20" font-weight="600" letter-spacing="1.2">CO-BRANDING TEMPLATE</text>
    <text x="112" y="300" font-size="56" font-weight="760">Herbarista</text>
    <text x="112" y="340" font-size="18" fill="#6F6A62">Заменить на официальный логотип производителя</text>
    <line x1="780" y1="220" x2="780" y2="420" stroke="#B9B2A6" stroke-width="2"/>
    <text x="840" y="300" font-size="22" font-weight="520">доступен через</text>
  </g>
  <g fill="#141414" transform="translate(840 324) scale(.355113636)"><path d="M20 20h23v140H20zM93 20h23v140H93zM43 20h23l27 98v42H70L43 62z"/><path fill-rule="evenodd" d="M158 20h42c27 0 41 14 41 41v58c0 27-14 41-41 41h-42c-27 0-41-14-41-41V61c0-27 14-41 41-41Zm4 28c-11 0-17 6-17 18v48c0 12 6 18 17 18h34c11 0 17-6 17-18V66c0-12-6-18-17-18h-34Z"/><path d="M266 20h51v28h-39c-9 0-13 4-13 12 0 7 4 11 13 13l18 4c21 5 31 18 31 41 0 28-15 42-44 42h-40v-28h42c10 0 15-4 15-13 0-7-4-11-14-13l-18-4c-20-5-30-18-30-41 0-27 14-41 42-41h16Z"/><path d="M337 20h103v29h-39v111h-25V49h-39z"/><path fill-rule="evenodd" d="M451 20h57c30 0 45 15 45 44 0 20-8 33-23 40l29 56h-31l-24-50h-25v50h-28V20Zm28 28v37h26c13 0 20-6 20-18 0-13-7-19-20-19h-26Z"/><path fill-rule="evenodd" d="M606 20h34l44 140h-29l-8-28h-51l-8 28h-28l46-140Zm15 34-17 51h35l-18-51Z"/></g>
</svg>
